<?xml version="1.0" standalone="no"?>
 <!DOCTYPE svg PUBLIC "-//W3C//DTD SVG 1.1//EN" 
 "http://www.w3.org/Graphics/SVG/1.1/DTD/svg11.dtd"> 
<svg xmlns="http://www.w3.org/2000/svg" version="1.1" 
    width="29.7002cm" height="21.0007cm" viewBox="0 0 116930 82680 ">
<title>SVG Picture created as Arduino 7segment timer-F.SilkS.svg date 2016/07/24 22:46:20 </title>
  <desc>Picture generated by PCBNEW </desc>
<g style="fill:#000000; fill-opacity:1;stroke:#000000; stroke-opacity:1;
stroke-linecap:round; stroke-linejoin:round; "
 transform="translate(0 0) scale(1 1)">
</g>
<g style="fill:#000000; fill-opacity:0.0; 
stroke:#000000; stroke-width:-0.000393701; stroke-opacity:1; 
stroke-linecap:round; stroke-linejoin:round;">
</g>
<g style="fill:#000000; fill-opacity:0.0; 
stroke:#000000; stroke-width:39.3701; stroke-opacity:1; 
stroke-linecap:round; stroke-linejoin:round;">
<path d="M24730 24500
L24730 26000
" />
<path d="M25130 24500
L25130 26000
" />
<path d="M24730 26000
L25130 26000
" />
<path d="M27530 26000
L27530 23700
" />
<path d="M27330 26000
L27530 26000
" />
<path d="M27330 23700
L27330 26000
" />
<path d="M27530 23700
L27330 23700
" />
<path d="M25130 24500
L25130 22000
" />
<path d="M24730 22000
L24730 24500
" />
<path d="M25130 22000
L24730 22000
" />
</g>
<g style="fill:#000000; fill-opacity:0.0; 
stroke:#000000; stroke-width:59.0551; stroke-opacity:1; 
stroke-linecap:round; stroke-linejoin:round;">
<circle cx="81930" cy="27100" r="492.126" /> 
<path d="M83012 28379
L83268 28379
" />
<path d="M83268 28379
L83268 25820
" />
<path d="M83268 25820
L83012 25820
" />
<path d="M80847 28379
L80591 28379
" />
<path d="M80591 28379
L80591 25820
" />
<path d="M80591 25820
L80847 25820
" />
<path d="M81437 28379
L82422 28379
" />
<path d="M81437 25820
L82422 25820
" />
<path d="M96376 15850
L94626 15850
" />
<path d="M94876 17850
L94376 15850
" />
<path d="M97126 17850
L96626 15850
" />
<path d="M96579 18100
L94979 18100
" />
<path d="M94876 18350
L95376 20350
" />
<path d="M97376 20350
L95626 20350
" />
<path d="M97126 18350
L97626 20350
" />
<path d="M85002 15934
L83252 15934
" />
<path d="M85842 17850
L85342 15850
" />
<path d="M83396 17850
L82896 15850
" />
<path d="M85592 18100
L83842 18100
" />
<path d="M83592 18350
L84092 20350
" />
<path d="M86092 20350
L84342 20350
" />
<path d="M86342 20350
L85842 18350
" />
<path d="M93030 15850
L91280 15850
" />
<path d="M91530 17850
L91030 15850
" />
<path d="M93780 17850
L93280 15850
" />
<path d="M94030 20350
L92280 20350
" />
<path d="M93780 18350
L94280 20350
" />
<path d="M91530 18350
L92030 20350
" />
<circle cx="90415.8" cy="16989.8" r="250" /> 
<path d="M89030 15850
L87280 15850
" />
<path d="M90030 20350
L88280 20350
" />
<path d="M87530 18350
L88030 20350
" />
<path d="M90280 20350
L89780 18350
" />
<path d="M87530 17850
L87030 15850
" />
<path d="M89780 17850
L89280 15850
" />
<path d="M89530 18100
L87780 18100
" />
<path d="M82655 15344
L82655 20855
" />
<path d="M82655 20855
L98404 20855
" />
<path d="M93430 18100
L91830 18100
" />
<circle cx="90754.4" cy="18879.5" r="250" /> 
<path d="M98404 15344
L98404 20855
" />
<path d="M82655 15344
L98404 15344
" />
<path d="M93480 18100
L91780 18100
" />
<path d="M34044 19584
L34241 19584
" />
<circle cx="32469.4" cy="20568.5" r="787.402" /> 
<circle cx="32469.4" cy="18600" r="787.402" /> 
<path d="M33453 17615
L33453 21552
" />
<path d="M31524 17615
L31524 21552
" />
<path d="M34044 17615
L34044 21552
" />
<path d="M34241 17615
L34241 21552
" />
<path d="M34241 21552
L30382 21552
" />
<path d="M30382 21552
L30382 17615
" />
<path d="M30382 17615
L34241 17615
" />
<path d="M92374 19036
L92374 18563
" />
<path d="M91685 18563
L91685 19036
" />
<path d="M91374 19036
L91374 18563
" />
<path d="M90685 18563
L90685 19036
" />
<path d="M87374 19036
L87374 18563
" />
<path d="M86685 18563
L86685 19036
" />
<path d="M86374 19036
L86374 18563
" />
<path d="M85685 18563
L85685 19036
" />
<path d="M85374 19036
L85374 18563
" />
<path d="M84685 18563
L84685 19036
" />
<path d="M89374 19036
L89374 18563
" />
<path d="M88685 18563
L88685 19036
" />
<circle cx="81930" cy="36800" r="492.126" /> 
<path d="M83012 38079
L83268 38079
" />
<path d="M83268 38079
L83268 35520
" />
<path d="M83268 35520
L83012 35520
" />
<path d="M80847 38079
L80591 38079
" />
<path d="M80591 38079
L80591 35520
" />
<path d="M80591 35520
L80847 35520
" />
<path d="M81437 38079
L82422 38079
" />
<path d="M81437 35520
L82422 35520
" />
<path d="M34044 23684
L34241 23684
" />
<circle cx="32469.4" cy="24668.5" r="787.402" /> 
<circle cx="32469.4" cy="22700" r="787.402" /> 
<path d="M33453 21715
L33453 25652
" />
<path d="M31524 21715
L31524 25652
" />
<path d="M34044 21715
L34044 25652
" />
<path d="M34241 21715
L34241 25652
" />
<path d="M34241 25652
L30382 25652
" />
<path d="M30382 25652
L30382 21715
" />
<path d="M30382 21715
L34241 21715
" />
<path d="M90374 19036
L90374 18563
" />
<path d="M89685 18563
L89685 19036
" />
<path d="M88374 19036
L88374 18563
" />
<path d="M87685 18563
L87685 19036
" />
<path d="M17280 24000
L17280 20000
" />
<path d="M14980 20000
L14980 24000
" />
<path d="M14980 24000
L17280 24000
" />
<path d="M14980 20000
L17280 20000
" />
<path d="M100941 35056
L100922 35056
" />
<path d="M99839 34780
L99839 35056
" />
<path d="M99839 35056
L99937 35056
" />
<path d="M100941 35056
L101020 35056
" />
<path d="M101020 35056
L101020 34780
" />
<path d="M98266 38855
L97793 38855
" />
<path d="M97793 39544
L98266 39544
" />
<path d="M98585 34263
L98585 34736
" />
<path d="M99274 34736
L99274 34263
" />
<path d="M95918 17944
L95937 17944
" />
<path d="M97020 18220
L97020 17944
" />
<path d="M97020 17944
L96922 17944
" />
<path d="M95918 17944
L95839 17944
" />
<path d="M95839 17944
L95839 18220
" />
<path d="M94818 19644
L94837 19644
" />
<path d="M95920 19920
L95920 19644
" />
<path d="M95920 19644
L95822 19644
" />
<path d="M94818 19644
L94739 19644
" />
<path d="M94739 19644
L94739 19920
" />
<path d="M93818 17944
L93837 17944
" />
<path d="M94920 18220
L94920 17944
" />
<path d="M94920 17944
L94822 17944
" />
<path d="M93818 17944
L93739 17944
" />
<path d="M93739 17944
L93739 18220
" />
<path d="M92718 19644
L92737 19644
" />
<path d="M93820 19920
L93820 19644
" />
<path d="M93820 19644
L93722 19644
" />
<path d="M92718 19644
L92639 19644
" />
<path d="M92639 19644
L92639 19920
" />
<circle cx="86830" cy="36800" r="492.126" /> 
<path d="M88109 35717
L88109 35461
" />
<path d="M88109 35461
L85550 35461
" />
<path d="M85550 35461
L85550 35717
" />
<path d="M88109 37882
L88109 38138
" />
<path d="M88109 38138
L85550 38138
" />
<path d="M85550 38138
L85550 37882
" />
<path d="M88109 37292
L88109 36307
" />
<path d="M85550 37292
L85550 36307
" />
<path d="M92330 42250
L91730 42250
" />
<path d="M91580 42200
L92480 42200
" />
<path d="M92580 42150
L91480 42150
" />
<path d="M91380 42100
L92680 42100
" />
<path d="M92730 42050
L91330 42050
" />
<path d="M93330 42400
L90730 42400
" />
<path d="M90730 42400
L90730 40100
" />
<path d="M90730 40100
L91030 39800
" />
<path d="M91030 39800
L93030 39800
" />
<path d="M93030 39800
L93330 40100
" />
<path d="M93330 40100
L93330 42400
" />
<path d="M92030 40250
L92030 40550
" />
<path d="M92180 40400
L91880 40400
" />
<circle cx="92030" cy="41100" r="1200" /> 
<path d="M85330 42250
L84730 42250
" />
<path d="M84580 42200
L85480 42200
" />
<path d="M85580 42150
L84480 42150
" />
<path d="M84380 42100
L85680 42100
" />
<path d="M85730 42050
L84330 42050
" />
<path d="M86330 42400
L83730 42400
" />
<path d="M83730 42400
L83730 40100
" />
<path d="M83730 40100
L84030 39800
" />
<path d="M84030 39800
L86030 39800
" />
<path d="M86030 39800
L86330 40100
" />
<path d="M86330 40100
L86330 42400
" />
<path d="M85030 40250
L85030 40550
" />
<path d="M85180 40400
L84880 40400
" />
<circle cx="85030" cy="41100" r="1200" /> 
<path d="M93095 23696
L93095 23303
" />
<path d="M93764 23303
L93764 23696
" />
<path d="M87882 41021
L87980 41139
" />
<path d="M87980 41139
L88020 41198
" />
<path d="M88020 41198
L88020 40864
" />
<path d="M87744 41612
L87744 40903
" />
<path d="M87744 41612
L88000 41612
" />
<path d="M89516 41612
L89516 40903
" />
<path d="M89516 41612
L89260 41612
" />
<path d="M87364 39903
L87364 40296
" />
<path d="M86695 40296
L86695 39903
" />
<path d="M82395 40296
L82395 39903
" />
<path d="M83064 39903
L83064 40296
" />
<path d="M80573 17859
L80431 18438
" />
<path d="M80431 18438
L80321 18020
" />
<path d="M80321 18020
L80199 18442
" />
<path d="M80199 18442
L80065 17871
" />
<path d="M81132 18131
L80821 18127
" />
<path d="M80821 18127
L80817 18131
" />
<path d="M80817 18131
L80817 18127
" />
<path d="M80801 17847
L80801 18454
" />
<path d="M81151 17843
L81151 18461
" />
<path d="M81151 18461
L81147 18457
" />
<path d="M81368 17883
L81506 17851
" />
<path d="M81506 17851
L81632 17847
" />
<path d="M81632 17847
L81726 17926
" />
<path d="M81726 17926
L81738 18032
" />
<path d="M81738 18032
L81643 18127
" />
<path d="M81643 18127
L81490 18178
" />
<path d="M81490 18178
L81419 18241
" />
<path d="M81419 18241
L81403 18359
" />
<path d="M81403 18359
L81494 18446
" />
<path d="M81494 18446
L81620 18457
" />
<path d="M81620 18457
L81758 18414
" />
<path d="M82167 17843
L82265 17851
" />
<path d="M82265 17851
L82360 17946
" />
<path d="M82360 17946
L82395 18139
" />
<path d="M82395 18139
L82384 18276
" />
<path d="M82384 18276
L82305 18402
" />
<path d="M82305 18402
L82206 18450
" />
<path d="M82206 18450
L82084 18422
" />
<path d="M82084 18422
L81998 18351
" />
<path d="M81998 18351
L81970 18170
" />
<path d="M81970 18170
L81990 18009
" />
<path d="M81990 18009
L82033 17898
" />
<path d="M82033 17898
L82175 17847
" />
<path d="M81931 17166
L82033 17387
" />
<path d="M82033 17387
L81821 17591
" />
<path d="M81821 17591
L81616 17485
" />
<path d="M81616 17485
L81506 17548
" />
<path d="M80939 17540
L80809 17465
" />
<path d="M80809 17465
L80636 17595
" />
<path d="M80636 17595
L80450 17402
" />
<path d="M80450 17402
L80561 17213
" />
<path d="M80561 17213
L80486 17028
" />
<path d="M80486 17028
L80246 16954
" />
<path d="M80246 16954
L80246 16686
" />
<path d="M80246 16686
L80466 16631
" />
<path d="M80466 16631
L80545 16406
" />
<path d="M80545 16406
L80439 16221
" />
<path d="M80439 16221
L80624 16020
" />
<path d="M80624 16020
L80828 16123
" />
<path d="M80828 16123
L81013 16044
" />
<path d="M81013 16044
L81080 15831
" />
<path d="M81080 15831
L81352 15824
" />
<path d="M81352 15824
L81435 16040
" />
<path d="M81435 16040
L81600 16107
" />
<path d="M81600 16107
L81817 16001
" />
<path d="M81817 16001
L82021 16209
" />
<path d="M82021 16209
L81923 16422
" />
<path d="M81923 16422
L81990 16611
" />
<path d="M81990 16611
L82206 16650
" />
<path d="M82206 16650
L82210 16926
" />
<path d="M82210 16926
L81990 17005
" />
<path d="M81990 17005
L81935 17162
" />
<path d="M81092 17154
L80974 17095
" />
<path d="M80974 17095
L80895 17017
" />
<path d="M80895 17017
L80836 16859
" />
<path d="M80836 16859
L80836 16702
" />
<path d="M80836 16702
L80895 16564
" />
<path d="M80895 16564
L81073 16426
" />
<path d="M81073 16426
L81250 16406
" />
<path d="M81250 16406
L81407 16446
" />
<path d="M81407 16446
L81565 16583
" />
<path d="M81565 16583
L81624 16761
" />
<path d="M81624 16761
L81604 16957
" />
<path d="M81604 16957
L81506 17076
" />
<path d="M81506 17076
L81368 17154
" />
<path d="M81368 17154
L81506 17548
" />
<path d="M81092 17154
L80935 17548
" />
<path d="M79998 27624
L79980 27568
L79980 27474
L79998 27437
L80017 27418
L80055 27399
L80092 27399
L80130 27418
L80148 27437
L80167 27474
L80186 27549
L80205 27587
L80223 27606
L80261 27624
L80298 27624
L80336 27606
L80355 27587
L80373 27549
L80373 27456
L80355 27399
" />
<path d="M80373 27268
L79980 27174
L80261 27099
L79980 27025
L80373 26931
" />
<path d="M80336 26800
L80355 26781
L80373 26743
L80373 26650
L80355 26612
L80336 26593
L80298 26575
L80261 26575
L80205 26593
L79980 26818
L79980 26575
" />
<path d="M91069 15094
L90882 15094
" />
<path d="M91107 15207
L90976 14813
L90844 15207
" />
<path d="M90582 15001
L90713 15001
" />
<path d="M90713 15207
L90713 14813
L90526 14813
" />
<path d="M90245 15001
L90376 15001
" />
<path d="M90376 15207
L90376 14813
L90188 14813
" />
<path d="M89832 15207
L90057 15207
" />
<path d="M89945 15207
L89945 14813
L89982 14869
L90020 14907
L90057 14926
" />
<path d="M34968 19715
L34687 19715
L34630 19734
L34593 19771
L34574 19827
L34574 19865
" />
<path d="M34968 19565
L34968 19321
L34818 19453
L34818 19396
L34799 19359
L34780 19340
L34743 19321
L34649 19321
L34612 19340
L34593 19359
L34574 19396
L34574 19509
L34593 19546
L34612 19565
" />
<path d="M91025 18865
L91212 18996
" />
<path d="M91025 19090
L91418 19090
L91418 18940
L91400 18903
L91381 18884
L91343 18865
L91287 18865
L91250 18884
L91231 18903
L91212 18940
L91212 19090
" />
<path d="M91025 18490
L91025 18715
" />
<path d="M91025 18603
L91418 18603
L91362 18640
L91325 18678
L91306 18715
" />
<path d="M90025 18865
L90212 18996
" />
<path d="M90025 19090
L90418 19090
L90418 18940
L90400 18903
L90381 18884
L90343 18865
L90287 18865
L90250 18884
L90231 18903
L90212 18940
L90212 19090
" />
<path d="M90381 18715
L90400 18696
L90418 18659
L90418 18565
L90400 18528
L90381 18509
L90343 18490
L90306 18490
L90250 18509
L90025 18734
L90025 18490
" />
<path d="M86025 18865
L86212 18996
" />
<path d="M86025 19090
L86418 19090
L86418 18940
L86400 18903
L86381 18884
L86343 18865
L86287 18865
L86250 18884
L86231 18903
L86212 18940
L86212 19090
" />
<path d="M86418 18509
L86418 18696
L86231 18715
L86250 18696
L86268 18659
L86268 18565
L86250 18528
L86231 18509
L86193 18490
L86100 18490
L86062 18509
L86043 18528
L86025 18565
L86025 18659
L86043 18696
L86062 18715
" />
<path d="M85025 18865
L85212 18996
" />
<path d="M85025 19090
L85418 19090
L85418 18940
L85400 18903
L85381 18884
L85343 18865
L85287 18865
L85250 18884
L85231 18903
L85212 18940
L85212 19090
" />
<path d="M85418 18528
L85418 18603
L85400 18640
L85381 18659
L85325 18696
L85250 18715
L85100 18715
L85062 18696
L85043 18678
L85025 18640
L85025 18565
L85043 18528
L85062 18509
L85100 18490
L85193 18490
L85231 18509
L85250 18528
L85268 18565
L85268 18640
L85250 18678
L85231 18696
L85193 18715
" />
<path d="M84025 18865
L84212 18996
" />
<path d="M84025 19090
L84418 19090
L84418 18940
L84400 18903
L84381 18884
L84343 18865
L84287 18865
L84250 18884
L84231 18903
L84212 18940
L84212 19090
" />
<path d="M84418 18734
L84418 18471
L84025 18640
" />
<path d="M88025 18865
L88212 18996
" />
<path d="M88025 19090
L88418 19090
L88418 18940
L88400 18903
L88381 18884
L88343 18865
L88287 18865
L88250 18884
L88231 18903
L88212 18940
L88212 19090
" />
<path d="M88250 18640
L88268 18678
L88287 18696
L88325 18715
L88343 18715
L88381 18696
L88400 18678
L88418 18640
L88418 18565
L88400 18528
L88381 18509
L88343 18490
L88325 18490
L88287 18509
L88268 18528
L88250 18565
L88250 18640
L88231 18678
L88212 18696
L88175 18715
L88100 18715
L88062 18696
L88043 18678
L88025 18640
L88025 18565
L88043 18528
L88062 18509
L88100 18490
L88175 18490
L88212 18509
L88231 18528
L88250 18565
" />
<path d="M79998 37324
L79980 37268
L79980 37174
L79998 37137
L80017 37118
L80055 37099
L80092 37099
L80130 37118
L80148 37137
L80167 37174
L80186 37249
L80205 37287
L80223 37306
L80261 37324
L80298 37324
L80336 37306
L80355 37287
L80373 37249
L80373 37156
L80355 37099
" />
<path d="M80373 36968
L79980 36874
L80261 36799
L79980 36725
L80373 36631
" />
<path d="M79980 36275
L79980 36500
" />
<path d="M79980 36387
L80373 36387
L80317 36425
L80280 36462
L80261 36500
" />
<path d="M34968 23815
L34687 23815
L34630 23834
L34593 23871
L34574 23927
L34574 23965
" />
<path d="M34574 23421
L34574 23646
" />
<path d="M34574 23534
L34968 23534
L34912 23571
L34874 23609
L34855 23646
" />
<path d="M89025 18865
L89212 18996
" />
<path d="M89025 19090
L89418 19090
L89418 18940
L89400 18903
L89381 18884
L89343 18865
L89287 18865
L89250 18884
L89231 18903
L89212 18940
L89212 19090
" />
<path d="M89418 18734
L89418 18490
L89268 18621
L89268 18565
L89250 18528
L89231 18509
L89193 18490
L89100 18490
L89062 18509
L89043 18528
L89025 18565
L89025 18678
L89043 18715
L89062 18734
" />
<path d="M87025 18865
L87212 18996
" />
<path d="M87025 19090
L87418 19090
L87418 18940
L87400 18903
L87381 18884
L87343 18865
L87287 18865
L87250 18884
L87231 18903
L87212 18940
L87212 19090
" />
<path d="M87287 18528
L87025 18528
" />
<path d="M87437 18621
L87156 18715
L87156 18471
" />
<path d="M14645 22131
L14364 22131
L14308 22149
L14270 22187
L14251 22243
L14251 22281
" />
<path d="M14645 21756
L14645 21943
L14458 21962
L14476 21943
L14495 21906
L14495 21812
L14476 21775
L14458 21756
L14420 21737
L14326 21737
L14289 21756
L14270 21775
L14251 21812
L14251 21906
L14270 21943
L14289 21962
" />
<path d="M100467 35901
L100504 35882
L100542 35845
L100598 35788
L100636 35770
L100673 35770
" />
<path d="M100654 35863
L100692 35845
L100729 35807
L100748 35732
L100748 35601
L100729 35526
L100692 35488
L100654 35470
L100579 35470
L100542 35488
L100504 35526
L100486 35601
L100486 35732
L100504 35807
L100542 35845
L100579 35863
L100654 35863
" />
<path d="M100130 35470
L100317 35470
L100336 35657
L100317 35638
L100280 35620
L100186 35620
L100148 35638
L100130 35657
L100111 35695
L100111 35788
L100130 35826
L100148 35845
L100186 35863
L100280 35863
L100317 35845
L100336 35826
" />
<path d="M98283 40204
L98414 40017
" />
<path d="M98508 40204
L98508 39811
L98358 39811
L98320 39829
L98301 39848
L98283 39886
L98283 39942
L98301 39979
L98320 39998
L98358 40017
L98508 40017
" />
<path d="M97908 40204
L98133 40204
" />
<path d="M98020 40204
L98020 39811
L98058 39867
L98095 39904
L98133 39923
" />
<path d="M97664 39811
L97626 39811
L97589 39829
L97570 39848
L97551 39886
L97533 39961
L97533 40054
L97551 40129
L97570 40167
L97589 40186
L97626 40204
L97664 40204
L97701 40186
L97720 40167
L97739 40129
L97758 40054
L97758 39961
L97739 39886
L97720 39848
L97701 39829
L97664 39811
" />
<path d="M99578 34753
L99766 34884
" />
<path d="M99578 34978
L99972 34978
L99972 34828
L99953 34790
L99934 34771
L99897 34753
L99841 34753
L99803 34771
L99784 34790
L99766 34828
L99766 34978
" />
<path d="M99578 34378
L99578 34603
" />
<path d="M99578 34490
L99972 34490
L99916 34528
L99878 34565
L99859 34603
" />
<path d="M99578 34003
L99578 34228
" />
<path d="M99578 34115
L99972 34115
L99916 34153
L99878 34190
L99859 34228
" />
<path d="M96467 17529
L96504 17511
L96542 17473
L96598 17417
L96636 17398
L96673 17398
" />
<path d="M96654 17492
L96692 17473
L96729 17436
L96748 17361
L96748 17229
L96729 17154
L96692 17117
L96654 17098
L96579 17098
L96542 17117
L96504 17154
L96486 17229
L96486 17361
L96504 17436
L96542 17473
L96579 17492
L96654 17492
" />
<path d="M96111 17492
L96336 17492
" />
<path d="M96223 17492
L96223 17098
L96261 17154
L96298 17192
L96336 17211
" />
<path d="M95367 19229
L95404 19211
L95442 19173
L95498 19117
L95536 19098
L95573 19098
" />
<path d="M95554 19192
L95592 19173
L95629 19136
L95648 19061
L95648 18929
L95629 18854
L95592 18817
L95554 18798
L95479 18798
L95442 18817
L95404 18854
L95386 18929
L95386 19061
L95404 19136
L95442 19173
L95479 19192
L95554 19192
" />
<path d="M95236 18836
L95217 18817
L95180 18798
L95086 18798
L95048 18817
L95030 18836
L95011 18873
L95011 18911
L95030 18967
L95255 19192
L95011 19192
" />
<path d="M94367 17529
L94404 17511
L94442 17473
L94498 17417
L94536 17398
L94573 17398
" />
<path d="M94554 17492
L94592 17473
L94629 17436
L94648 17361
L94648 17229
L94629 17154
L94592 17117
L94554 17098
L94479 17098
L94442 17117
L94404 17154
L94386 17229
L94386 17361
L94404 17436
L94442 17473
L94479 17492
L94554 17492
" />
<path d="M94255 17098
L94011 17098
L94142 17248
L94086 17248
L94048 17267
L94030 17286
L94011 17323
L94011 17417
L94030 17454
L94048 17473
L94086 17492
L94198 17492
L94236 17473
L94255 17454
" />
<path d="M93267 19229
L93304 19211
L93342 19173
L93398 19117
L93436 19098
L93473 19098
" />
<path d="M93454 19192
L93492 19173
L93529 19136
L93548 19061
L93548 18929
L93529 18854
L93492 18817
L93454 18798
L93379 18798
L93342 18817
L93304 18854
L93286 18929
L93286 19061
L93304 19136
L93342 19173
L93379 19192
L93454 19192
" />
<path d="M92948 18929
L92948 19192
" />
<path d="M93042 18779
L93136 19061
L92892 19061
" />
<path d="M87354 38731
L87298 38749
L87204 38749
L87167 38731
L87148 38712
L87129 38674
L87129 38637
L87148 38599
L87167 38581
L87204 38562
L87279 38543
L87317 38524
L87336 38506
L87354 38468
L87354 38431
L87336 38393
L87317 38374
L87279 38356
L87186 38356
L87129 38374
" />
<path d="M86998 38356
L86904 38749
L86829 38468
L86755 38749
L86661 38356
" />
<path d="M86548 38356
L86305 38356
L86436 38506
L86380 38506
L86342 38524
L86323 38543
L86305 38581
L86305 38674
L86323 38712
L86342 38731
L86380 38749
L86492 38749
L86530 38731
L86548 38712
" />
<path d="M101254 12782
L101386 12594
" />
<path d="M101479 12782
L101479 12388
L101329 12388
L101292 12407
L101273 12425
L101254 12463
L101254 12519
L101273 12557
L101292 12575
L101329 12594
L101479 12594
" />
<path d="M101086 12575
L100954 12575
" />
<path d="M100898 12782
L101086 12782
L101086 12388
L100898 12388
" />
<path d="M100598 12575
L100730 12575
" />
<path d="M100730 12782
L100730 12388
L100542 12388
" />
<path d="M100336 12388
L100336 12482
" />
<path d="M100430 12444
L100336 12482
L100242 12444
" />
<path d="M100392 12557
L100336 12482
L100280 12557
" />
<path d="M100036 12388
L100036 12482
" />
<path d="M100130 12444
L100036 12482
L99942 12444
" />
<path d="M100092 12557
L100036 12482
L99980 12557
" />
<path d="M93639 41165
L93620 41184
L93601 41240
L93601 41278
L93620 41334
L93658 41371
L93695 41390
L93770 41409
L93826 41409
L93901 41390
L93939 41371
L93976 41334
L93995 41278
L93995 41240
L93976 41184
L93958 41165
" />
<path d="M93601 40790
L93601 41015
" />
<path d="M93601 40903
L93995 40903
L93939 40940
L93901 40978
L93883 41015
" />
<path d="M86639 41165
L86620 41184
L86601 41240
L86601 41278
L86620 41334
L86658 41371
L86695 41390
L86770 41409
L86826 41409
L86901 41390
L86939 41371
L86976 41334
L86995 41278
L86995 41240
L86976 41184
L86958 41165
" />
<path d="M86958 41015
L86976 40996
L86995 40959
L86995 40865
L86976 40828
L86958 40809
L86920 40790
L86883 40790
L86826 40809
L86601 41034
L86601 40790
" />
<path d="M92462 23565
L92443 23584
L92425 23640
L92425 23678
L92443 23734
L92481 23771
L92518 23790
L92593 23809
L92650 23809
L92725 23790
L92762 23771
L92800 23734
L92818 23678
L92818 23640
L92800 23584
L92781 23565
" />
<path d="M92818 23434
L92818 23190
L92668 23321
L92668 23265
L92650 23228
L92631 23209
L92593 23190
L92500 23190
L92462 23209
L92443 23228
L92425 23265
L92425 23378
L92443 23415
L92462 23434
" />
<path d="M88890 42557
L88890 42876
L88872 42913
L88853 42932
L88815 42951
L88740 42951
L88703 42932
L88684 42913
L88665 42876
L88665 42557
" />
<path d="M88516 42557
L88272 42557
L88403 42707
L88347 42707
L88309 42726
L88291 42744
L88272 42782
L88272 42876
L88291 42913
L88309 42932
L88347 42951
L88459 42951
L88497 42932
L88516 42913
" />
<path d="M87716 40165
L87697 40184
L87678 40240
L87678 40278
L87697 40334
L87734 40371
L87772 40390
L87847 40409
L87903 40409
L87978 40390
L88016 40371
L88053 40334
L88072 40278
L88072 40240
L88053 40184
L88034 40165
" />
<path d="M88072 39809
L88072 39996
L87884 40015
L87903 39996
L87922 39959
L87922 39865
L87903 39828
L87884 39809
L87847 39790
L87753 39790
L87716 39809
L87697 39828
L87678 39865
L87678 39959
L87697 39996
L87716 40015
" />
<path d="M81762 40165
L81743 40184
L81725 40240
L81725 40278
L81743 40334
L81781 40371
L81818 40390
L81893 40409
L81950 40409
L82025 40390
L82062 40371
L82100 40334
L82118 40278
L82118 40240
L82100 40184
L82081 40165
" />
<path d="M82118 39828
L82118 39903
L82100 39940
L82081 39959
L82025 39996
L81950 40015
L81800 40015
L81762 39996
L81743 39978
L81725 39940
L81725 39865
L81743 39828
L81762 39809
L81800 39790
L81893 39790
L81931 39809
L81950 39828
L81968 39865
L81968 39940
L81950 39978
L81931 39996
L81893 40015
" />
<path d="M16654 16082
L16786 15894
" />
<path d="M16879 16082
L16879 15688
L16729 15688
L16692 15707
L16673 15725
L16654 15763
L16654 15819
L16673 15857
L16692 15875
L16729 15894
L16879 15894
" />
<path d="M16486 15875
L16354 15875
" />
<path d="M16298 16082
L16486 16082
L16486 15688
L16298 15688
" />
<path d="M15998 15875
L16130 15875
" />
<path d="M16130 16082
L16130 15688
L15942 15688
" />
<path d="M15736 15688
L15736 15782
" />
<path d="M15830 15744
L15736 15782
L15642 15744
" />
<path d="M15792 15857
L15736 15782
L15680 15857
" />
<path d="M15436 15688
L15436 15782
" />
<path d="M15530 15744
L15436 15782
L15342 15744
" />
<path d="M15492 15857
L15436 15782
L15380 15857
" />
<path d="M16654 24982
L16786 24794
" />
<path d="M16879 24982
L16879 24588
L16729 24588
L16692 24607
L16673 24625
L16654 24663
L16654 24719
L16673 24757
L16692 24775
L16729 24794
L16879 24794
" />
<path d="M16486 24775
L16354 24775
" />
<path d="M16298 24982
L16486 24982
L16486 24588
L16298 24588
" />
<path d="M15998 24775
L16130 24775
" />
<path d="M16130 24982
L16130 24588
L15942 24588
" />
<path d="M15736 24588
L15736 24682
" />
<path d="M15830 24644
L15736 24682
L15642 24644
" />
<path d="M15792 24757
L15736 24682
L15680 24757
" />
<path d="M15436 24588
L15436 24682
" />
<path d="M15530 24644
L15436 24682
L15342 24644
" />
<path d="M15492 24757
L15436 24682
L15380 24757
" />
<path d="M81554 12782
L81686 12594
" />
<path d="M81779 12782
L81779 12388
L81629 12388
L81592 12407
L81573 12425
L81554 12463
L81554 12519
L81573 12557
L81592 12575
L81629 12594
L81779 12594
" />
<path d="M81386 12575
L81254 12575
" />
<path d="M81198 12782
L81386 12782
L81386 12388
L81198 12388
" />
<path d="M80898 12575
L81030 12575
" />
<path d="M81030 12782
L81030 12388
L80842 12388
" />
<path d="M80636 12388
L80636 12482
" />
<path d="M80730 12444
L80636 12482
L80542 12444
" />
<path d="M80692 12557
L80636 12482
L80580 12557
" />
<path d="M80336 12388
L80336 12482
" />
<path d="M80430 12444
L80336 12482
L80242 12444
" />
<path d="M80392 12557
L80336 12482
L80280 12557
" />
<path d="M81554 40382
L81686 40194
" />
<path d="M81779 40382
L81779 39988
L81629 39988
L81592 40007
L81573 40025
L81554 40063
L81554 40119
L81573 40157
L81592 40175
L81629 40194
L81779 40194
" />
<path d="M81386 40175
L81254 40175
" />
<path d="M81198 40382
L81386 40382
L81386 39988
L81198 39988
" />
<path d="M80898 40175
L81030 40175
" />
<path d="M81030 40382
L81030 39988
L80842 39988
" />
<path d="M80636 39988
L80636 40082
" />
<path d="M80730 40044
L80636 40082
L80542 40044
" />
<path d="M80692 40157
L80636 40082
L80580 40157
" />
<path d="M80336 39988
L80336 40082
" />
<path d="M80430 40044
L80336 40082
L80242 40044
" />
<path d="M80392 40157
L80336 40082
L80280 40157
" />
<path d="M101254 40382
L101386 40194
" />
<path d="M101479 40382
L101479 39988
L101329 39988
L101292 40007
L101273 40025
L101254 40063
L101254 40119
L101273 40157
L101292 40175
L101329 40194
L101479 40194
" />
<path d="M101086 40175
L100954 40175
" />
<path d="M100898 40382
L101086 40382
L101086 39988
L100898 39988
" />
<path d="M100598 40175
L100730 40175
" />
<path d="M100730 40382
L100730 39988
L100542 39988
" />
<path d="M100336 39988
L100336 40082
" />
<path d="M100430 40044
L100336 40082
L100242 40044
" />
<path d="M100392 40157
L100336 40082
L100280 40157
" />
<path d="M100036 39988
L100036 40082
" />
<path d="M100130 40044
L100036 40082
L99942 40044
" />
<path d="M100092 40157
L100036 40082
L99980 40157
" />
<path d="M36354 16082
L36486 15894
" />
<path d="M36579 16082
L36579 15688
L36429 15688
L36392 15707
L36373 15725
L36354 15763
L36354 15819
L36373 15857
L36392 15875
L36429 15894
L36579 15894
" />
<path d="M36186 15875
L36054 15875
" />
<path d="M35998 16082
L36186 16082
L36186 15688
L35998 15688
" />
<path d="M35698 15875
L35830 15875
" />
<path d="M35830 16082
L35830 15688
L35642 15688
" />
<path d="M35436 15688
L35436 15782
" />
<path d="M35530 15744
L35436 15782
L35342 15744
" />
<path d="M35492 15857
L35436 15782
L35380 15857
" />
<path d="M35136 15688
L35136 15782
" />
<path d="M35230 15744
L35136 15782
L35042 15744
" />
<path d="M35192 15857
L35136 15782
L35080 15857
" />
<path d="M36354 24982
L36486 24794
" />
<path d="M36579 24982
L36579 24588
L36429 24588
L36392 24607
L36373 24625
L36354 24663
L36354 24719
L36373 24757
L36392 24775
L36429 24794
L36579 24794
" />
<path d="M36186 24775
L36054 24775
" />
<path d="M35998 24982
L36186 24982
L36186 24588
L35998 24588
" />
<path d="M35698 24775
L35830 24775
" />
<path d="M35830 24982
L35830 24588
L35642 24588
" />
<path d="M35436 24588
L35436 24682
" />
<path d="M35530 24644
L35436 24682
L35342 24644
" />
<path d="M35492 24757
L35436 24682
L35380 24757
" />
<path d="M35136 24588
L35136 24682
" />
<path d="M35230 24644
L35136 24682
L35042 24644
" />
<path d="M35192 24757
L35136 24682
L35080 24757
" />
<path d="M81715 15250
L81847 15062
" />
<path d="M81940 15250
L81940 14856
L81790 14856
L81753 14875
L81734 14893
L81715 14931
L81715 14987
L81734 15025
L81753 15043
L81790 15062
L81940 15062
" />
<path d="M81547 15043
L81415 15043
" />
<path d="M81359 15250
L81547 15250
L81547 14856
L81359 14856
" />
<path d="M81059 15043
L81191 15043
" />
<path d="M81191 15250
L81191 14856
L81003 14856
" />
<path d="M80797 14856
L80797 14950
" />
<path d="M80891 14912
L80797 14950
L80703 14912
" />
<path d="M80853 15025
L80797 14950
L80741 15025
" />
<path d="M80497 14856
L80497 14950
" />
<path d="M80591 14912
L80497 14950
L80403 14912
" />
<path d="M80553 15025
L80497 14950
L80441 15025
" />
<path d="M98718 39104
L98850 38916
" />
<path d="M98943 39104
L98943 38710
L98793 38710
L98756 38729
L98737 38747
L98718 38785
L98718 38841
L98737 38879
L98756 38897
L98793 38916
L98943 38916
" />
<path d="M98550 38897
L98418 38897
" />
<path d="M98362 39104
L98550 39104
L98550 38710
L98362 38710
" />
<path d="M98062 38897
L98194 38897
" />
<path d="M98194 39104
L98194 38710
L98006 38710
" />
<path d="M97800 38710
L97800 38804
" />
<path d="M97894 38766
L97800 38804
L97706 38766
" />
<path d="M97856 38879
L97800 38804
L97744 38879
" />
<path d="M97500 38710
L97500 38804
" />
<path d="M97594 38766
L97500 38804
L97406 38766
" />
<path d="M97556 38879
L97500 38804
L97444 38879
" />
<path d="M81518 17304
L81650 17116
" />
<path d="M81743 17304
L81743 16910
L81593 16910
L81556 16929
L81537 16947
L81518 16985
L81518 17041
L81537 17079
L81556 17097
L81593 17116
L81743 17116
" />
<path d="M81350 17097
L81218 17097
" />
<path d="M81162 17304
L81350 17304
L81350 16910
L81162 16910
" />
<path d="M80862 17097
L80994 17097
" />
<path d="M80994 17304
L80994 16910
L80806 16910
" />
<path d="M80600 16910
L80600 17004
" />
<path d="M80694 16966
L80600 17004
L80506 16966
" />
<path d="M80656 17079
L80600 17004
L80544 17079
" />
<path d="M80300 16910
L80300 17004
" />
<path d="M80394 16966
L80300 17004
L80206 16966
" />
<path d="M80356 17079
L80300 17004
L80244 17079
" />
<path d="M81715 15250
L81847 15062
" />
<path d="M81940 15250
L81940 14856
L81790 14856
L81753 14875
L81734 14893
L81715 14931
L81715 14987
L81734 15025
L81753 15043
L81790 15062
L81940 15062
" />
<path d="M81547 15043
L81415 15043
" />
<path d="M81359 15250
L81547 15250
L81547 14856
L81359 14856
" />
<path d="M81059 15043
L81191 15043
" />
<path d="M81191 15250
L81191 14856
L81003 14856
" />
<path d="M80797 14856
L80797 14950
" />
<path d="M80891 14912
L80797 14950
L80703 14912
" />
<path d="M80853 15025
L80797 14950
L80741 15025
" />
<path d="M80497 14856
L80497 14950
" />
<path d="M80591 14912
L80497 14950
L80403 14912
" />
<path d="M80553 15025
L80497 14950
L80441 15025
" />
</g> 
</svg>
