<?xml version="1.0" standalone="no"?>
 <!DOCTYPE svg PUBLIC "-//W3C//DTD SVG 1.1//EN" 
 "http://www.w3.org/Graphics/SVG/1.1/DTD/svg11.dtd"> 
<svg xmlns="http://www.w3.org/2000/svg" version="1.1" 
    width="29.7002cm" height="21.0007cm" viewBox="0 0 116930 82680 ">
<title>SVG Picture created as Arduino 7segment timer-Margin.svg date 2016/07/24 21:45:48 </title>
  <desc>Picture generated by PCBNEW </desc>
<g style="fill:#000000; fill-opacity:1;stroke:#000000; stroke-opacity:1;
stroke-linecap:round; stroke-linejoin:round; "
 transform="translate(0 0) scale(1 1)">
</g>
<g style="fill:#000000; fill-opacity:0.0; 
stroke:#000000; stroke-width:-0.000393701; stroke-opacity:1; 
stroke-linecap:round; stroke-linejoin:round;">
</g>
<g style="fill:#000000; fill-opacity:0.0; 
stroke:#000000; stroke-width:39.3701; stroke-opacity:1; 
stroke-linecap:round; stroke-linejoin:round;">
<path d="M24730 24500
L24730 26000
" />
<path d="M25130 24500
L25130 26000
" />
<path d="M24730 26000
L25130 26000
" />
</g>
<g style="fill:#000000; fill-opacity:0.0; 
stroke:#000000; stroke-width:118.11; stroke-opacity:1; 
stroke-linecap:round; stroke-linejoin:round;">
<path d="M40438 19375
L40438 19740
L40663 19544
L40663 19628
L40691 19684
L40719 19712
L40775 19740
L40916 19740
L40972 19712
L41000 19684
L41028 19628
L41028 19459
L41000 19403
L40972 19375
" />
<path d="M41028 20303
L41028 19965
" />
<path d="M41028 20134
L40438 20134
L40522 20078
L40578 20022
L40606 19965
" />
<path d="M41000 20584
L41028 20584
L41084 20556
L41113 20528
" />
<path d="M40494 20809
L40466 20837
L40438 20893
L40438 21034
L40466 21090
L40494 21118
L40550 21146
L40606 21146
L40691 21118
L41028 20781
L41028 21146
" />
<path d="M40634 21653
L41028 21653
" />
<path d="M40409 21512
L40831 21371
L40831 21737
" />
<path d="M40494 21934
L40466 21962
L40438 22018
L40438 22159
L40466 22215
L40494 22243
L40550 22271
L40606 22271
L40691 22243
L41028 21906
L41028 22271
" />
<path d="M41028 22974
L40634 22974
" />
<path d="M40691 22974
L40663 23002
L40634 23059
L40634 23143
L40663 23199
L40719 23227
L41028 23227
" />
<path d="M40719 23227
L40663 23256
L40634 23312
L40634 23396
L40663 23452
L40719 23481
L41028 23481
" />
<path d="M41028 23762
L40634 23762
" />
<path d="M40691 23762
L40663 23790
L40634 23846
L40634 23930
L40663 23987
L40719 24015
L41028 24015
" />
<path d="M40719 24015
L40663 24043
L40634 24099
L40634 24184
L40663 24240
L40719 24268
L41028 24268
" />
<path d="M40230 15700
L40230 28000
" />
<path d="M37530 15700
L41292 15700
" />
<path d="M37530 28000
L41292 28000
" />
<path d="M40230 28000
L40460 27556
" />
<path d="M40230 28000
L39999 27556
" />
<path d="M40230 15700
L40460 16143
" />
<path d="M40230 15700
L39999 16143
" />
<path d="M28117 33008
L28398 33008
L28426 33289
L28398 33261
L28342 33233
L28201 33233
L28145 33261
L28117 33289
L28089 33345
L28089 33486
L28117 33542
L28145 33570
L28201 33598
L28342 33598
L28398 33570
L28426 33542
" />
<path d="M27751 33261
L27807 33233
L27836 33204
L27864 33148
L27864 33120
L27836 33064
L27807 33036
L27751 33008
L27639 33008
L27582 33036
L27554 33064
L27526 33120
L27526 33148
L27554 33204
L27582 33233
L27639 33261
L27751 33261
L27807 33289
L27836 33317
L27864 33373
L27864 33486
L27836 33542
L27807 33570
L27751 33598
L27639 33598
L27582 33570
L27554 33542
L27526 33486
L27526 33373
L27554 33317
L27582 33289
L27639 33261
" />
<path d="M27245 33570
L27245 33598
L27273 33654
L27301 33683
" />
<path d="M26739 33008
L26851 33008
L26908 33036
L26936 33064
L26992 33148
L27020 33261
L27020 33486
L26992 33542
L26964 33570
L26908 33598
L26795 33598
L26739 33570
L26711 33542
L26683 33486
L26683 33345
L26711 33289
L26739 33261
L26795 33233
L26908 33233
L26964 33261
L26992 33289
L27020 33345
" />
<path d="M26486 33008
L26092 33008
L26345 33598
" />
<path d="M25614 33204
L25614 33598
" />
<path d="M25755 32979
L25895 33401
L25530 33401
" />
<path d="M24855 33598
L24855 33204
" />
<path d="M24855 33261
L24827 33233
L24770 33204
L24686 33204
L24630 33233
L24602 33289
L24602 33598
" />
<path d="M24602 33289
L24573 33233
L24517 33204
L24433 33204
L24377 33233
L24348 33289
L24348 33598
" />
<path d="M24067 33598
L24067 33204
" />
<path d="M24067 33261
L24039 33233
L23983 33204
L23899 33204
L23842 33233
L23814 33289
L23814 33598
" />
<path d="M23814 33289
L23786 33233
L23730 33204
L23645 33204
L23589 33233
L23561 33289
L23561 33598
" />
<path d="M37530 32800
L14430 32800
" />
<path d="M37530 28000
L37530 33862
" />
<path d="M14430 28000
L14430 33862
" />
<path d="M14430 32800
L14873 33030
" />
<path d="M14430 32800
L14873 32569
" />
<path d="M37530 32800
L37086 33030
" />
<path d="M37530 32800
L37086 32569
" />
</g>
<g style="fill:#000000; fill-opacity:0.0; 
stroke:#000000; stroke-width:78.7402; stroke-opacity:1; 
stroke-linecap:round; stroke-linejoin:round;">
<path d="M14430 17400
L14430 26300
" />
<path d="M35830 28000
L16130 28000
" />
<path d="M37530 17400
L37530 26300
" />
</g>
<g style="fill:#000000; fill-opacity:0.0; 
stroke:#000000; stroke-width:39.3701; stroke-opacity:1; 
stroke-linecap:round; stroke-linejoin:round;">
<path d="M27530 26000
L27530 23700
" />
<path d="M27330 26000
L27530 26000
" />
<path d="M27330 23700
L27330 26000
" />
<path d="M27530 23700
L27330 23700
" />
<path d="M25130 24500
L25130 22000
" />
<path d="M24730 22000
L24730 24500
" />
<path d="M25130 22000
L24730 22000
" />
</g>
<g style="fill:#000000; fill-opacity:0.0; 
stroke:#000000; stroke-width:78.7402; stroke-opacity:1; 
stroke-linecap:round; stroke-linejoin:round;">
<path d="M35830 28000 A1700 1700 0.0 0 0 37530 26300 " />
<path d="M14430 26300 A1700 1700 0.0 0 0 16130 28000 " />
<path d="M37530 17400 A1700 1700 0.0 0 0 35830 15700 " />
<path d="M16130 15700 A1700 1700 0.0 0 0 14430 17400 " />
<path d="M35830 15700
L16130 15700
" />
</g>
<g style="fill:#000000; fill-opacity:0.0; 
stroke:#000000; stroke-width:118.11; stroke-opacity:1; 
stroke-linecap:round; stroke-linejoin:round;">
<path d="M70821 30374
L70821 29980
L70231 30234
" />
<path d="M70568 29671
L70596 29727
L70625 29756
L70681 29784
L70709 29784
L70765 29756
L70793 29727
L70821 29671
L70821 29559
L70793 29502
L70765 29474
L70709 29446
L70681 29446
L70625 29474
L70596 29502
L70568 29559
L70568 29671
L70540 29727
L70512 29756
L70456 29784
L70343 29784
L70287 29756
L70259 29727
L70231 29671
L70231 29559
L70259 29502
L70287 29474
L70343 29446
L70456 29446
L70512 29474
L70540 29502
L70568 29559
" />
<path d="M70259 29165
L70231 29165
L70175 29193
L70146 29221
" />
<path d="M70821 28968
L70821 28574
L70231 28828
" />
<path d="M70625 28096
L70231 28096
" />
<path d="M70850 28237
L70428 28378
L70428 28012
" />
<path d="M70821 27675
L70821 27618
L70793 27562
L70765 27534
L70709 27506
L70596 27478
L70456 27478
L70343 27506
L70287 27534
L70259 27562
L70231 27618
L70231 27675
L70259 27731
L70287 27759
L70343 27787
L70456 27815
L70596 27815
L70709 27787
L70765 27759
L70793 27731
L70821 27675
" />
<path d="M70231 26775
L70625 26775
" />
<path d="M70568 26775
L70596 26747
L70625 26690
L70625 26606
L70596 26550
L70540 26522
L70231 26522
" />
<path d="M70540 26522
L70596 26493
L70625 26437
L70625 26353
L70596 26297
L70540 26268
L70231 26268
" />
<path d="M70231 25987
L70625 25987
" />
<path d="M70568 25987
L70596 25959
L70625 25903
L70625 25819
L70596 25762
L70540 25734
L70231 25734
" />
<path d="M70540 25734
L70596 25706
L70625 25650
L70625 25565
L70596 25509
L70540 25481
L70231 25481
" />
<path d="M71030 43400
L71030 12400
" />
<path d="M79330 43400
L69967 43400
" />
<path d="M79330 12400
L69967 12400
" />
<path d="M71030 12400
L70799 12843
" />
<path d="M71030 12400
L71260 12843
" />
<path d="M71030 43400
L70799 42956
" />
<path d="M71030 43400
L71260 42956
" />
<path d="M93017 49508
L93298 49508
L93326 49789
L93298 49761
L93242 49733
L93101 49733
L93045 49761
L93017 49789
L92989 49845
L92989 49986
L93017 50042
L93045 50070
L93101 50098
L93242 50098
L93298 50070
L93326 50042
" />
<path d="M92651 49761
L92707 49733
L92736 49704
L92764 49648
L92764 49620
L92736 49564
L92707 49536
L92651 49508
L92539 49508
L92482 49536
L92454 49564
L92426 49620
L92426 49648
L92454 49704
L92482 49733
L92539 49761
L92651 49761
L92707 49789
L92736 49817
L92764 49873
L92764 49986
L92736 50042
L92707 50070
L92651 50098
L92539 50098
L92482 50070
L92454 50042
L92426 49986
L92426 49873
L92454 49817
L92482 49789
L92539 49761
" />
<path d="M92145 50070
L92145 50098
L92173 50154
L92201 50183
" />
<path d="M91639 49508
L91751 49508
L91808 49536
L91836 49564
L91892 49648
L91920 49761
L91920 49986
L91892 50042
L91864 50070
L91808 50098
L91695 50098
L91639 50070
L91611 50042
L91583 49986
L91583 49845
L91611 49789
L91639 49761
L91695 49733
L91808 49733
L91864 49761
L91892 49789
L91920 49845
" />
<path d="M91386 49508
L90992 49508
L91245 50098
" />
<path d="M90514 49704
L90514 50098
" />
<path d="M90655 49479
L90795 49901
L90430 49901
" />
<path d="M89755 50098
L89755 49704
" />
<path d="M89755 49761
L89727 49733
L89670 49704
L89586 49704
L89530 49733
L89502 49789
L89502 50098
" />
<path d="M89502 49789
L89473 49733
L89417 49704
L89333 49704
L89277 49733
L89248 49789
L89248 50098
" />
<path d="M88967 50098
L88967 49704
" />
<path d="M88967 49761
L88939 49733
L88883 49704
L88799 49704
L88742 49733
L88714 49789
L88714 50098
" />
<path d="M88714 49789
L88686 49733
L88630 49704
L88545 49704
L88489 49733
L88461 49789
L88461 50098
" />
<path d="M102430 49300
L79330 49300
" />
<path d="M102430 43400
L102430 50362
" />
<path d="M79330 43400
L79330 50362
" />
<path d="M79330 49300
L79773 49530
" />
<path d="M79330 49300
L79773 49069
" />
<path d="M102430 49300
L101986 49530
" />
<path d="M102430 49300
L101986 49069
" />
</g>
<g style="fill:#000000; fill-opacity:0.0; 
stroke:#000000; stroke-width:78.7402; stroke-opacity:1; 
stroke-linecap:round; stroke-linejoin:round;">
<path d="M100730 43400
L81030 43400
" />
<path d="M102430 14100
L102430 41700
" />
<path d="M79330 14100
L79330 41700
" />
<path d="M100730 12400
L81030 12400
" />
<path d="M81030 12400 A1700 1700 0.0 0 0 79330 14100 " />
<path d="M102430 14100 A1700 1700 0.0 0 0 100730 12400 " />
<path d="M79330 41700 A1700 1700 0.0 0 0 81030 43400 " />
<path d="M100730 43400 A1700 1700 0.0 0 0 102430 41700 " />
</g> 
</svg>
