<?xml version="1.0" standalone="no"?>
 <!DOCTYPE svg PUBLIC "-//W3C//DTD SVG 1.1//EN" 
 "http://www.w3.org/Graphics/SVG/1.1/DTD/svg11.dtd"> 
<svg xmlns="http://www.w3.org/2000/svg" version="1.1" 
    width="29.7002cm" height="21.0007cm" viewBox="0 0 116930 82680 ">
<title>SVG Picture created as Arduino 7segment timer-Dwgs.User.svg date 2016/07/24 22:46:20 </title>
  <desc>Picture generated by PCBNEW </desc>
<g style="fill:#000000; fill-opacity:1;stroke:#000000; stroke-opacity:1;
stroke-linecap:round; stroke-linejoin:round; "
 transform="translate(0 0) scale(1 1)">
</g>
<g style="fill:#000000; fill-opacity:0.0; 
stroke:#000000; stroke-width:-0.000393701; stroke-opacity:1; 
stroke-linecap:round; stroke-linejoin:round;">
</g>
<g style="fill:#000000; fill-opacity:0.0; 
stroke:#000000; stroke-width:39.3701; stroke-opacity:1; 
stroke-linecap:round; stroke-linejoin:round;">
<path d="M24730 24500
L24730 26000
" />
<path d="M25130 24500
L25130 26000
" />
<path d="M24730 26000
L25130 26000
" />
<path d="M27530 26000
L27530 23700
" />
<path d="M27330 26000
L27530 26000
" />
<path d="M27330 23700
L27330 26000
" />
<path d="M27530 23700
L27330 23700
" />
<path d="M25130 24500
L25130 22000
" />
<path d="M24730 22000
L24730 24500
" />
<path d="M25130 22000
L24730 22000
" />
</g>
<g style="fill:#000000; fill-opacity:0.0; 
stroke:#000000; stroke-width:78.7402; stroke-opacity:1; 
stroke-linecap:round; stroke-linejoin:round;">
<circle cx="86830" cy="36800" r="800" /> 
<circle cx="81930" cy="36800" r="2400" /> 
<circle cx="81930" cy="27100" r="2400" /> 
</g>
<g style="fill:#000000; fill-opacity:0.0; 
stroke:#000000; stroke-width:118.11; stroke-opacity:1; 
stroke-linecap:round; stroke-linejoin:round;">
<path d="M74421 30374
L74421 29980
L73831 30234
" />
<path d="M74421 29643
L74421 29587
L74393 29531
L74365 29502
L74309 29474
L74196 29446
L74056 29446
L73943 29474
L73887 29502
L73859 29531
L73831 29587
L73831 29643
L73859 29699
L73887 29727
L73943 29756
L74056 29784
L74196 29784
L74309 29756
L74365 29727
L74393 29699
L74421 29643
" />
<path d="M73859 29165
L73831 29165
L73775 29193
L73746 29221
" />
<path d="M73831 28603
L73831 28940
" />
<path d="M73831 28771
L74421 28771
L74337 28828
L74281 28884
L74253 28940
" />
<path d="M74421 28237
L74421 28181
L74393 28124
L74365 28096
L74309 28068
L74196 28040
L74056 28040
L73943 28068
L73887 28096
L73859 28124
L73831 28181
L73831 28237
L73859 28293
L73887 28321
L73943 28349
L74056 28378
L74196 28378
L74309 28349
L74365 28321
L74393 28293
L74421 28237
" />
<path d="M74225 27534
L73831 27534
" />
<path d="M74450 27675
L74028 27815
L74028 27450
" />
<path d="M73831 26775
L74225 26775
" />
<path d="M74168 26775
L74196 26747
L74225 26690
L74225 26606
L74196 26550
L74140 26522
L73831 26522
" />
<path d="M74140 26522
L74196 26493
L74225 26437
L74225 26353
L74196 26297
L74140 26268
L73831 26268
" />
<path d="M73831 25987
L74225 25987
" />
<path d="M74168 25987
L74196 25959
L74225 25903
L74225 25819
L74196 25762
L74140 25734
L73831 25734
" />
<path d="M74140 25734
L74196 25706
L74225 25650
L74225 25565
L74196 25509
L74140 25481
L73831 25481
" />
<path d="M74630 41700
L74630 14100
" />
<path d="M81030 41700
L73567 41700
" />
<path d="M81030 14100
L73567 14100
" />
<path d="M74630 14100
L74399 14543
" />
<path d="M74630 14100
L74860 14543
" />
<path d="M74630 41700
L74399 41256
" />
<path d="M74630 41700
L74860 41256
" />
<path d="M93017 46808
L93298 46808
L93326 47089
L93298 47061
L93242 47033
L93101 47033
L93045 47061
L93017 47089
L92989 47145
L92989 47286
L93017 47342
L93045 47370
L93101 47398
L93242 47398
L93298 47370
L93326 47342
" />
<path d="M92623 46808
L92567 46808
L92511 46836
L92482 46864
L92454 46920
L92426 47033
L92426 47173
L92454 47286
L92482 47342
L92511 47370
L92567 47398
L92623 47398
L92679 47370
L92707 47342
L92736 47286
L92764 47173
L92764 47033
L92736 46920
L92707 46864
L92679 46836
L92623 46808
" />
<path d="M92145 47370
L92145 47398
L92173 47454
L92201 47483
" />
<path d="M91779 46808
L91723 46808
L91667 46836
L91639 46864
L91611 46920
L91583 47033
L91583 47173
L91611 47286
L91639 47342
L91667 47370
L91723 47398
L91779 47398
L91836 47370
L91864 47342
L91892 47286
L91920 47173
L91920 47033
L91892 46920
L91864 46864
L91836 46836
L91779 46808
" />
<path d="M91386 46808
L91020 46808
L91217 47033
L91133 47033
L91076 47061
L91048 47089
L91020 47145
L91020 47286
L91048 47342
L91076 47370
L91133 47398
L91301 47398
L91358 47370
L91386 47342
" />
<path d="M90683 47061
L90739 47033
L90767 47004
L90795 46948
L90795 46920
L90767 46864
L90739 46836
L90683 46808
L90570 46808
L90514 46836
L90486 46864
L90458 46920
L90458 46948
L90486 47004
L90514 47033
L90570 47061
L90683 47061
L90739 47089
L90767 47117
L90795 47173
L90795 47286
L90767 47342
L90739 47370
L90683 47398
L90570 47398
L90514 47370
L90486 47342
L90458 47286
L90458 47173
L90486 47117
L90514 47089
L90570 47061
" />
<path d="M89755 47398
L89755 47004
" />
<path d="M89755 47061
L89727 47033
L89670 47004
L89586 47004
L89530 47033
L89502 47089
L89502 47398
" />
<path d="M89502 47089
L89473 47033
L89417 47004
L89333 47004
L89277 47033
L89248 47089
L89248 47398
" />
<path d="M88967 47398
L88967 47004
" />
<path d="M88967 47061
L88939 47033
L88883 47004
L88799 47004
L88742 47033
L88714 47089
L88714 47398
" />
<path d="M88714 47089
L88686 47033
L88630 47004
L88545 47004
L88489 47033
L88461 47089
L88461 47398
" />
<path d="M100730 46600
L81030 46600
" />
<path d="M100730 41700
L100730 47662
" />
<path d="M81030 41700
L81030 47662
" />
<path d="M81030 46600
L81473 46830
" />
<path d="M81030 46600
L81473 46369
" />
<path d="M100730 46600
L100286 46830
" />
<path d="M100730 46600
L100286 46369
" />
</g> 
</svg>
